<svg width="6516" height="2573" viewBox="0 0 6516 2573" fill="none" xmlns="http://www.w3.org/2000/svg">
<path d="M559.758 2496.18C1667.37 1993.51 2045.34 1439.17 2182.32 1018.63C2335.18 549.293 2256.35 36.3272 2421.36 4.47155C2527.02 -15.9338 2657.03 175.613 2899.43 595.508C3634.48 1868.78 3651.12 2206.92 3964.29 2294.68C4403 2417.71 4673.45 1838.92 5347.8 1851.39C5843.08 1860.58 6243.87 2182.84 6514 2469.3" stroke="#4A3AFF" stroke-width="5" stroke-miterlimit="10"/>
<path d="M533.162 2445.65C1609.59 1953.8 2009.27 1414.97 2157.11 1020.84C2322.32 580.384 2244.3 93.9159 2407.59 70.9082C2512.58 56.1055 2640.15 244.377 2874.28 649.882C3585.85 1882.03 3607.92 2224.37 3918.68 2307.8C4359.93 2424.6 4618.59 1803.94 5300.08 1795.49C5314.94 1795.31 5329.57 1795.31 5344.21 1795.67C5827.75 1808.15 6234.25 2130.56 6510.15 2415.26" stroke="#4A3AFF" stroke-width="5" stroke-miterlimit="10"/>
<path d="M506.65 2395.11C1551.8 1914.14 1972.88 1391.73 2131.97 1023.07C2309.28 612.148 2232.36 151.565 2393.89 137.374C2498.23 128.19 2623.37 313.201 2849.19 704.301C3537.11 1895.25 3564.49 2242.91 3873.18 2320.92C4316.58 2432.97 4563.98 1768.66 5252.49 1739.57C5267.6 1738.93 5282.65 1738.29 5297.71 1738.36C5789.23 1740.87 6216.86 2069.95 6506.39 2361.21" stroke="#4A3AFF" stroke-width="5" stroke-miterlimit="10"/>
<path d="M480.08 2344.58C1494.11 1874.34 1935.93 1369.61 2106.78 1025.31C2295.7 644.585 2220.45 209.261 2380.13 203.857C2483.88 200.336 2606.45 382.01 2824.06 758.705C3488.42 1908.6 3521.21 2260.83 3827.64 2334.04C4273.4 2440.52 4509.4 1733.11 5204.85 1683.65C5220.29 1682.55 5235.71 1681.49 5251.08 1681.03C5750.56 1666.25 6199.36 2009.31 6502.51 2307.13" stroke="#4A3AFF" stroke-width="5" stroke-miterlimit="10"/>
<path d="M453.518 2294.05C1436.37 1834.68 1898.24 1348.67 2081.59 1027.54C2281.36 677.68 2208.62 267.017 2366.4 270.338C2469.57 272.497 2589.59 450.833 2798.95 813.124C3439.73 1921.89 3477.95 2278.71 3782.11 2347.14C4230.36 2447.99 4454.91 1697.31 5157.22 1627.67C5172.99 1626.14 5188.77 1624.61 5204.61 1623.66C5712.01 1595.46 6181.97 1948.65 6498.79 2253.07" stroke="#4A3AFF" stroke-width="5" stroke-miterlimit="10"/>
<path d="M426.955 2243.52C1378.63 1795 1859.59 1329 2056.45 1029.79C2265.92 711.388 2196.78 324.819 2352.7 336.805C2455.32 344.704 2572.75 519.642 2773.86 867.544C3391.1 1935.17 3434.77 2296.53 3736.61 2360.26C4187.32 2455.4 4400.46 1661.26 5109.63 1571.8C5125.74 1569.76 5141.86 1567.69 5158.1 1566.38C5673.41 1524.89 6164.64 1888.06 6495.03 2199.07" stroke="#4A3AFF" stroke-width="5" stroke-miterlimit="10"/>
<path d="M400.41 2192.99C1320.88 1755.28 1819.69 1310.58 2031.24 1032.03C2248.89 745.434 2185.04 382.699 2338.93 403.288C2441.04 416.942 2555.87 588.513 2748.7 921.949C3342.38 1948.45 3391.55 2314.31 3691.05 2373.36C4144.32 2462.75 4345.96 1624.99 5061.97 1515.88C5078.48 1513.37 5094.89 1510.8 5111.5 1509.07C5634.68 1454.39 6147.16 1827.47 6491.17 2145.02" stroke="#4A3AFF" stroke-width="5" stroke-miterlimit="10"/>
<path d="M373.848 2142.46C1263.14 1715.57 1729.28 1248.48 2006.07 1034.26C2173.7 744.836 2173.29 440.654 2325.2 469.754C2426.8 489.226 2539.01 657.275 2723.59 976.444C3293.7 1961.81 3348.36 2332.09 3645.51 2386.56C4101.33 2470.09 4291.48 1588.59 5014.32 1460.03C5031.13 1457.05 5047.95 1453.99 5064.97 1451.81C5596.07 1384.08 6129.84 1766.88 6487.42 2091.04" stroke="#4A3AFF" stroke-width="5" stroke-miterlimit="10"/>
<path d="M347.281 2091.93C1205.4 1675.86 1684.14 1221.22 1980.89 1036.5C2150.64 772.774 2161.53 498.687 2311.46 536.237C2412.56 561.556 2522.14 726.054 2698.46 1030.79C3244.92 1975.02 3305.2 2349.68 3600 2399.6C4058.37 2477.21 4236.98 1551.84 4966.69 1404.04C4983.83 1400.56 5001 1397.01 5018.43 1394.41C5557.44 1313.72 6112.36 1706.19 6483.62 2036.91" stroke="#4A3AFF" stroke-width="5" stroke-miterlimit="10"/>
<path d="M320.719 2041.4C1147.65 1636.15 1638.99 1193.98 1955.69 1038.73C2127.56 800.694 2149.78 556.778 2297.72 602.702C2398.32 633.915 2505.28 794.877 2673.33 1085.19C3196.32 1988.35 3262.06 2367.27 3554.46 2412.69C4015.44 2484.31 4182.44 1514.97 4919.06 1348.09C4936.53 1344.14 4954.06 1340.11 4971.89 1337.07C5518.8 1243.5 6094.94 1645.53 6479.83 1982.84" stroke="#4A3AFF" stroke-width="5" stroke-miterlimit="10"/>
<path d="M294.168 1990.87C1089.93 1596.44 1593.85 1166.74 1930.51 1040.98C2104.49 828.647 2138.01 614.965 2283.97 669.185C2384.05 706.353 2488.42 863.718 2648.22 1139.57C3147.63 2001.55 3218.94 2384.78 3508.93 2425.78C3972.52 2491.31 4127.85 1477.93 4871.43 1292.14C4889.24 1287.68 4907.12 1283.21 4925.33 1279.71C5480.2 1173.36 6077.52 1584.89 6476.03 1928.76" stroke="#4A3AFF" stroke-width="5" stroke-miterlimit="10"/>
<path d="M267.602 1940.32C1032.14 1556.75 1548.74 1139.49 1905.35 1043.28C2081.44 856.645 2126.22 673.242 2270.21 735.729C2369.75 778.897 2471.55 932.588 2623.07 1194.09C3098.93 2014.94 3175.79 2402.37 3463.41 2438.99C3929.64 2498.37 4073.22 1440.92 4823.8 1236.33C4841.96 1231.38 4860.12 1226.44 4878.79 1222.55C5441.62 1103.48 6060.1 1524.4 6472.23 1874.86" stroke="#4A3AFF" stroke-width="5" stroke-miterlimit="10"/>
<path d="M241.039 1889.79C974.41 1517.04 1503.54 1112.24 1880.16 1045.45C2058.36 884.52 2114.35 731.472 2256.49 802.133C2355.45 851.333 2454.69 1001.35 2597.96 1248.45C3050.32 2028.17 3132.71 2419.75 3417.86 2452.04C3886.73 2505.15 4018.49 1403.53 4776.17 1180.34C4794.64 1174.9 4813.23 1169.51 4832.3 1165.11C5403.12 1033.47 6042.73 1463.62 6468.48 1820.72" stroke="#4A3AFF" stroke-width="5" stroke-miterlimit="10"/>
<path d="M214.527 1839.26C916.663 1477.33 1458.39 1085.01 1854.98 1047.72C2035.28 912.488 2102.45 789.796 2242.76 868.616C2341.12 923.877 2437.84 1070.16 2572.85 1302.85C3001.59 2041.46 3089.6 2437.17 3372.33 2465.16C3843.87 2511.91 3963.72 1366.06 4728.52 1124.43C4747.34 1118.47 4766.3 1112.62 4785.71 1107.79C5364.54 963.525 6025.27 1403.04 6464.73 1766.67" stroke="#4A3AFF" stroke-width="5" stroke-miterlimit="10"/>
<path d="M187.932 1788.73C858.913 1437.62 1413.26 1057.76 1829.81 1049.94C2012.22 940.41 2090.51 848.134 2229.03 935.129C2326.75 996.467 2420.98 1139 2547.66 1357.3C2952.84 2054.78 3046.43 2454.48 3326.73 2478.3C3800.93 2518.6 3908.81 1328.68 4680.83 1068.52C4699.98 1062.08 4719.3 1055.79 4739.09 1050.49C5325.99 893.705 6007.78 1342.46 6460.79 1712.65" stroke="#4A3AFF" stroke-width="5" stroke-miterlimit="10"/>
<path d="M161.369 1738.19C801.164 1397.91 1368.1 1030.51 1804.62 1052.17C1989.16 968.346 2078.51 906.502 2215.29 1001.56C2312.33 1069.01 2404.11 1207.79 2522.62 1411.69C2904.22 2068.02 3003.39 2471.71 3281.28 2491.39C3758.14 2525.14 3853.96 1291 4633.27 1012.65C4652.75 1005.7 4672.43 998.961 4692.7 993.221C5287.59 823.885 5990.43 1281.79 6457.06 1658.5" stroke="#4A3AFF" stroke-width="5" stroke-miterlimit="10"/>
<path d="M134.803 1687.66C743.428 1358.22 1322.95 1003.32 1779.44 1054.41C1965.99 996.237 2066.45 964.902 2201.55 1068.05C2297.87 1141.6 2387.25 1276.6 2497.49 1466.05C2855.53 2081.24 2960.28 2488.88 3235.74 2504.43C3715.26 2531.52 3798.97 1253.26 4585.63 956.589C4605.44 949.119 4625.49 941.955 4646.07 935.755C5249.15 754.143 5973.06 1221.17 6453.26 1604.51" stroke="#4A3AFF" stroke-width="5" stroke-miterlimit="10"/>
<path d="M108.24 1637.07C685.679 1318.45 1277.79 975.97 1754.24 1056.6C1943 1024.16 2054.35 1023.22 2187.79 1134.45C2283.38 1214.05 2370.38 1345.35 2472.34 1520.45C2806.83 2094.5 2917.16 2506.04 3190.2 2517.55C3672.39 2537.94 3743.91 1215.55 4538 900.762C4558.13 892.771 4578.55 885.179 4599.52 878.52C5210.77 684.462 5955.6 1160.57 6449.47 1550.53" stroke="#4A3AFF" stroke-width="5" stroke-miterlimit="10"/>
<path d="M81.6914 1586.55C627.927 1278.87 1226.38 1140.99 1729.08 1058.89C1917.19 1028.17 2042.24 1081.69 2174.06 1200.99C2268.88 1286.72 2353.54 1414.23 2447.25 1574.93C2758.16 2107.88 2874.05 2523.21 3144.68 2530.73C3629.5 2544.18 3688.78 1177.71 4490.37 844.796C4510.81 836.315 4531.65 828.279 4552.98 821.161C5172.4 614.765 5938.13 1099.92 6445.68 1496.41" stroke="#4A3AFF" stroke-width="5" stroke-miterlimit="10"/>
<path d="M55.1289 1536.04C570.227 1239.07 1176.13 964.626 1703.91 1061.1C1894.29 1095.91 2030.05 1140.04 2160.33 1267.45C2254.33 1359.29 2336.67 1483.01 2422.12 1629.32C2709.49 2121.13 2830.91 2540.23 3099.15 2543.8C3586.57 2550.29 3633.58 1139.79 4442.73 788.846C4463.51 779.845 4484.71 771.426 4506.44 763.818C5134.53 546.278 5920.76 1039.28 6441.94 1442.35" stroke="#4A3AFF" stroke-width="5" stroke-miterlimit="10"/>
<path d="M28.5625 1485.52C512.441 1199.37 1135.05 915.701 1678.73 1063.35C1871.57 1115.73 2017.83 1198.44 2146.59 1333.93C2239.75 1431.9 2319.81 1551.85 2396.99 1683.74C2660.8 2134.44 2787.77 2558.33 3053.61 2556.93C3543.63 2554.36 3577.72 1100.79 4395.09 732.941C4416.17 723.389 4437.77 714.577 4459.88 706.504C5096.03 476.106 5903.34 978.647 6438.09 1388.29" stroke="#4A3AFF" stroke-width="5" stroke-miterlimit="10"/>
<path d="M2 1435.01C454.692 1159.69 1097.19 867.084 1653.53 1065.61C2492.22 1364.94 2564.78 2577.09 3008.09 2570.05C3513.45 2562.03 3523.79 985.092 4413.34 649.192C5057.51 405.95 5885.99 918.028 6434.29 1334.26" stroke="#4A3AFF" stroke-width="5" stroke-miterlimit="10"/>
</svg>
